<svg width="42" height="42" viewBox="0 0 42 42" fill="none" xmlns="http://www.w3.org/2000/svg">
<path d="M20.946 3.05176e-05H21.0416C32.6098 3.05176e-05 41.9876 9.38063 41.9876 20.9522V21.0478C41.9876 32.6194 32.6098 42 21.0416 42H20.946C9.37785 42 3.8147e-06 32.6194 3.8147e-06 21.0478V20.9522C3.8147e-06 9.38063 9.37785 3.05176e-05 20.946 3.05176e-05Z" fill="#00E510"/>
<path d="M16.9021 27.1426C22.2757 27.1426 26.6476 22.7679 26.6491 17.3927C26.6476 16.0301 25.5385 14.9221 24.1792 14.9221C24.0395 14.9221 23.9012 14.9338 23.7688 14.9574C23.4776 15.0059 23.201 15.1045 22.9465 15.2531C22.9097 15.2752 22.8847 15.3105 22.8789 15.3517L22.311 18.9318C22.3037 18.9745 22.3169 19.0157 22.3449 19.0466C22.6582 19.3938 23.0583 19.644 23.504 19.7691L23.7188 19.8294L23.6379 20.0369C22.9053 21.9027 21.4137 23.3933 19.547 24.129L19.3396 24.2114L19.2793 23.9966C19.1542 23.5507 18.9041 23.1505 18.557 22.8371C18.532 22.8135 18.4981 22.8018 18.4643 22.8018C18.4569 22.8018 18.4496 22.8018 18.4408 22.8032L14.8617 23.3712C14.8191 23.3786 14.7838 23.4021 14.7617 23.4389C14.6146 23.6935 14.516 23.9716 14.466 24.2629C14.4425 24.3924 14.4322 24.5292 14.4322 24.672C14.4322 26.0331 15.5399 27.1411 16.9021 27.1426Z" fill="#FDFDFD"/>
<path d="M7.3728 19.8206C7.66259 16.5452 9.16304 13.5066 11.5976 11.2655C14.0469 9.01126 17.2243 7.76935 20.5473 7.76935C27.8407 7.76935 33.7748 13.7052 33.7748 21.0007C33.7748 23.4493 33.0996 25.8345 31.8213 27.9122L34.6722 34.2248L25.5444 33.2521C23.9572 33.9025 22.2773 34.2321 20.5488 34.2321C20.0943 34.2321 19.6279 34.2086 19.1602 34.16C18.7483 34.1159 18.332 34.0511 17.923 33.9687C11.8153 32.7342 7.35662 27.3118 7.32132 21.0714V21.0007C7.32132 20.6034 7.33896 20.2062 7.37427 19.8206H7.3728ZM25.1929 30.4814L30.2429 31.0199L28.7351 27.6782L29.0367 27.2736C29.0587 27.2442 29.0808 27.2147 29.1058 27.1809C30.415 25.3725 31.1064 23.2359 31.1064 21.0022C31.1064 15.1782 26.3697 10.4401 20.5473 10.4401C15.0928 10.4401 10.4693 14.697 10.0236 20.1311C10.0001 20.4225 9.98682 20.7153 9.98682 21.0037C9.98682 21.0861 9.98829 21.167 9.98977 21.2538C10.1016 26.1258 13.5041 30.2636 18.2643 31.3172C18.6277 31.3981 18.9998 31.4599 19.3705 31.4996C19.7559 31.5438 20.1516 31.5658 20.5444 31.5658C21.9434 31.5658 23.3026 31.2951 24.5868 30.7595C24.7295 30.7021 24.8692 30.6403 25.0002 30.577L25.1914 30.4843L25.1929 30.4814Z" fill="#FDFDFD"/>
</svg>
